<?xml version="1.0" encoding="UTF-8"?>
<!-- Generator: visioncortex VTracer 0.6.3 -->
<svg version="1.1" xmlns="http://www.w3.org/2000/svg" width="1280" height="960">
<path d="M0 0 C1.14 -0.01 2.28 -0.02 3.45 -0.04 C7.13 -0.07 10.81 -0.09 14.49 -0.1 C15.74 -0.11 16.99 -0.11 18.27 -0.12 C36.58 -0.14 53.57 0.75 71.37 5.27 C73.58 5.78 75.8 6.28 78.02 6.77 C83.19 7.97 88.26 9.33 93.3 10.96 C94.5 11.35 94.5 11.35 95.72 11.74 C98.27 12.58 100.82 13.42 103.37 14.27 C104.62 14.68 104.62 14.68 105.9 15.1 C137.55 25.57 167.35 41.85 194.37 61.27 C195.24 61.9 196.11 62.52 197 63.17 C199.8 65.19 202.58 67.23 205.37 69.27 C205.91 69.67 206.46 70.06 207.02 70.47 C208.7 71.69 210.38 72.92 212.05 74.15 C213.07 74.89 214.08 75.63 215.13 76.39 C215.87 77.01 216.61 77.63 217.37 78.27 C217.37 78.93 217.37 79.59 217.37 80.27 C217.95 80.54 218.54 80.8 219.14 81.07 C221.45 82.32 223.05 83.66 224.94 85.47 C225.6 86.1 226.27 86.73 226.95 87.38 C227.65 88.04 228.34 88.71 229.05 89.4 C230.49 90.77 231.93 92.14 233.38 93.5 C234.06 94.16 234.75 94.81 235.47 95.49 C237.74 97.62 240.07 99.67 242.43 101.71 C245.66 104.56 248.49 107.56 251.26 110.85 C253.03 112.89 254.84 114.86 256.69 116.82 C257.28 117.45 257.88 118.08 258.49 118.73 C259.69 120 260.89 121.26 262.1 122.53 C266.37 127.05 266.37 127.05 266.37 129.27 C267.03 129.27 267.69 129.27 268.37 129.27 C269.58 130.55 269.58 130.55 270.95 132.36 C271.46 133.03 271.98 133.71 272.5 134.4 C273.06 135.14 273.61 135.88 274.18 136.65 C274.76 137.41 275.33 138.18 275.92 138.96 C277.75 141.39 279.56 143.83 281.37 146.27 C281.94 147.04 282.5 147.8 283.09 148.59 C290.24 158.23 296.92 168.05 303.16 178.31 C304.39 180.31 305.65 182.29 306.93 184.27 C312.38 192.76 317.14 201.39 321.51 210.49 C322.76 213.1 324.07 215.68 325.37 218.27 C326.03 219.61 326.7 220.94 327.37 222.27 C332.4 221.35 337.3 220.32 342.18 218.77 C359.68 213.93 381.14 213.18 398.37 219.27 C399.06 219.51 399.75 219.75 400.46 220 C402.44 220.72 404.4 221.49 406.37 222.27 C407.08 222.54 407.79 222.8 408.52 223.07 C420.64 227.67 431.98 233.53 442.37 241.27 C443.46 241.97 444.55 242.68 445.68 243.4 C448.6 245.44 450.86 247.73 453.37 250.27 C454.16 251.03 454.95 251.78 455.76 252.56 C468.29 264.66 477.37 278.57 482.37 295.27 C482.93 296.8 483.49 298.32 484.05 299.84 C491.08 321.26 486.18 348.6 476.85 368.51 C475.43 371.15 473.93 373.71 472.37 376.27 C471.83 377.23 471.28 378.18 470.73 379.16 C467.71 384.4 467.71 384.4 466.37 386.27 C465.71 386.27 465.05 386.27 464.37 386.27 C464.31 386.83 464.24 387.39 464.18 387.96 C463.03 391.23 460.83 392.86 458.37 395.27 C456.82 397.02 455.28 398.77 453.74 400.52 C445.99 409.08 436.97 415.93 427.37 422.27 C426.4 422.91 425.44 423.55 424.45 424.2 C404.67 436.83 382.32 445.58 359.37 450.27 C358.71 450.43 358.05 450.58 357.37 450.74 C350.46 452.38 343.47 453.35 336.43 454.34 C335.22 454.51 334.01 454.68 332.76 454.86 C322.71 456.28 312.81 457.42 302.66 457.51 C301.76 457.52 300.86 457.53 299.92 457.54 C296.99 457.57 294.05 457.58 291.12 457.59 C289.61 457.59 289.61 457.59 288.06 457.6 C268.65 457.62 249.61 456.09 230.38 453.54 C228.33 453.27 226.29 453.01 224.24 452.75 C218.07 451.97 211.97 451.14 205.93 449.65 C204.86 449.39 203.79 449.13 202.68 448.86 C201.92 448.67 201.15 448.47 200.37 448.27 C200.2 449.37 200.04 450.46 199.87 451.59 C196.56 464.7 184.22 473.49 173.37 480.27 C172.23 481.01 172.23 481.01 171.07 481.76 C144.72 496.5 107.04 498.04 78.37 491.27 C77.08 491.03 75.78 490.79 74.45 490.54 C63.87 488.43 55.09 483.85 45.74 478.59 C41.96 476.49 38.13 474.48 34.3 472.46 C33.59 472.08 32.88 471.71 32.15 471.32 C27.8 469.02 23.43 466.76 19.02 464.58 C16.87 463.52 14.73 462.45 12.59 461.37 C11.91 461.03 11.22 460.68 10.52 460.32 C9.18 459.65 7.85 458.98 6.51 458.3 C0.87 455.47 -4.87 452.85 -10.63 450.27 C-11.66 449.81 -12.69 449.35 -13.75 448.88 C-54.37 430.84 -92.07 420.44 -136.63 425.27 C-137.31 425.35 -138 425.42 -138.7 425.5 C-152.29 426.97 -165.89 428.47 -179.43 430.33 C-185.87 431.2 -192.29 431.84 -198.76 432.34 C-200.34 432.46 -200.34 432.46 -201.95 432.59 C-210.02 433.2 -218.09 433.64 -226.17 433.93 C-226.98 433.96 -227.79 433.99 -228.62 434.03 C-229.33 434.05 -230.03 434.08 -230.76 434.1 C-232.86 434.22 -232.86 434.22 -235.63 435.27 C-237.24 435.32 -238.84 435.31 -240.45 435.27 C-246.5 435.21 -252.52 435.47 -258.57 435.77 C-260.49 435.86 -262.41 435.94 -264.32 436.02 C-267.44 436.16 -270.55 436.34 -273.66 436.59 C-279.25 436.9 -282.75 436.83 -287.2 433.21 C-293.36 426.79 -296.09 420.11 -295.97 411.25 C-293.34 388.26 -273.05 368.45 -255.95 354.46 C-251.93 351.27 -251.93 351.27 -249.63 351.27 C-249.63 350.61 -249.63 349.95 -249.63 349.27 C-247.44 347.64 -245.24 346.13 -242.95 344.65 C-242.26 344.2 -241.57 343.75 -240.86 343.29 C-238.79 341.94 -236.71 340.61 -234.63 339.27 C-233.62 338.61 -232.6 337.94 -231.55 337.26 C-216.47 327.65 -200.4 319.48 -183.63 313.27 C-181.99 312.59 -180.34 311.9 -178.7 311.21 C-174.36 309.48 -169.96 308.04 -165.51 306.65 C-164.85 306.44 -164.19 306.24 -163.52 306.02 C-158.92 304.61 -154.3 303.41 -149.63 302.27 C-149.89 301.66 -150.15 301.05 -150.42 300.42 C-152.82 294.63 -154.68 288.94 -156.07 282.84 C-156.28 281.95 -156.48 281.07 -156.69 280.16 C-160.27 264.41 -163.39 248.45 -165.18 232.39 C-165.58 229.16 -165.58 229.16 -166.64 225.66 C-167.8 221.08 -167.92 216.72 -167.9 212.01 C-167.9 211.13 -167.9 210.26 -167.9 209.36 C-167.91 207.52 -167.9 205.67 -167.89 203.82 C-167.88 201.07 -167.89 198.32 -167.91 195.57 C-167.92 183.36 -167.1 171.39 -165.63 159.27 C-165.53 158.44 -165.43 157.6 -165.33 156.73 C-162.42 132.71 -155.74 109.82 -144.63 88.34 C-144.03 87.16 -144.03 87.16 -143.41 85.97 C-140.95 81.34 -138.19 77.18 -134.97 73.04 C-133.52 71.19 -133.52 71.19 -132.1 68.68 C-130.11 65.42 -127.69 62.65 -125.2 59.77 C-124.24 58.66 -123.28 57.54 -122.32 56.43 C-121.86 55.89 -121.4 55.36 -120.93 54.81 C-119.78 53.45 -118.69 52.04 -117.61 50.62 C-114.76 47.24 -111.32 44.86 -107.78 42.24 C-105.54 40.19 -104.97 39.23 -104.63 36.27 C-104.06 36.15 -103.48 36.03 -102.88 35.9 C-98.53 34.69 -95.3 32.35 -91.66 29.69 C-81.63 22.44 -70.96 17.18 -59.63 12.27 C-57.92 11.52 -57.92 11.52 -56.17 10.75 C-43.9 5.89 -30.54 3.77 -17.63 1.27 C-16.75 1.09 -15.88 0.9 -14.97 0.71 C-9.99 0.06 -5.02 0.05 0 0 Z " fill="#71DF4F" transform="translate(566.6328125,206.7265625)"/>
<path d="M0 0 C1.14 -0.01 2.28 -0.02 3.45 -0.04 C7.13 -0.07 10.81 -0.09 14.49 -0.1 C15.74 -0.11 16.99 -0.11 18.27 -0.12 C36.58 -0.14 53.57 0.75 71.37 5.27 C73.58 5.78 75.8 6.28 78.02 6.77 C83.19 7.97 88.26 9.33 93.3 10.96 C94.5 11.35 94.5 11.35 95.72 11.74 C98.27 12.58 100.82 13.42 103.37 14.27 C104.62 14.68 104.62 14.68 105.9 15.1 C137.55 25.57 167.35 41.85 194.37 61.27 C195.24 61.9 196.11 62.52 197 63.17 C199.8 65.19 202.58 67.23 205.37 69.27 C205.91 69.67 206.46 70.06 207.02 70.47 C208.7 71.69 210.38 72.92 212.05 74.15 C213.07 74.89 214.08 75.63 215.13 76.39 C215.87 77.01 216.61 77.63 217.37 78.27 C217.37 78.93 217.37 79.59 217.37 80.27 C217.95 80.54 218.54 80.8 219.14 81.07 C221.45 82.32 223.05 83.66 224.94 85.47 C225.6 86.1 226.27 86.73 226.95 87.38 C227.65 88.04 228.34 88.71 229.05 89.4 C230.49 90.77 231.93 92.14 233.38 93.5 C234.06 94.16 234.75 94.81 235.47 95.49 C237.74 97.62 240.07 99.67 242.43 101.71 C245.66 104.56 248.49 107.56 251.26 110.85 C253.03 112.89 254.84 114.86 256.69 116.82 C257.28 117.45 257.88 118.08 258.49 118.73 C259.69 120 260.89 121.26 262.1 122.53 C266.37 127.05 266.37 127.05 266.37 129.27 C267.03 129.27 267.69 129.27 268.37 129.27 C269.58 130.55 269.58 130.55 270.95 132.36 C271.46 133.03 271.98 133.71 272.5 134.4 C273.06 135.14 273.61 135.88 274.18 136.65 C274.76 137.41 275.33 138.18 275.92 138.96 C277.75 141.39 279.56 143.83 281.37 146.27 C281.94 147.04 282.5 147.8 283.09 148.59 C290.24 158.23 296.92 168.05 303.16 178.31 C304.39 180.31 305.65 182.29 306.93 184.27 C312.38 192.76 317.14 201.39 321.51 210.49 C322.76 213.1 324.07 215.68 325.37 218.27 C326.03 219.61 326.7 220.94 327.37 222.27 C332.4 221.35 337.3 220.32 342.18 218.77 C359.68 213.93 381.14 213.18 398.37 219.27 C399.06 219.51 399.75 219.75 400.46 220 C402.44 220.72 404.4 221.49 406.37 222.27 C407.08 222.54 407.79 222.8 408.52 223.07 C420.64 227.67 431.98 233.53 442.37 241.27 C443.46 241.97 444.55 242.68 445.68 243.4 C448.6 245.44 450.86 247.73 453.37 250.27 C454.16 251.03 454.95 251.78 455.76 252.56 C468.29 264.66 477.37 278.57 482.37 295.27 C482.93 296.8 483.49 298.32 484.05 299.84 C491.08 321.26 486.18 348.6 476.85 368.51 C475.43 371.15 473.93 373.71 472.37 376.27 C471.83 377.23 471.28 378.18 470.73 379.16 C467.71 384.4 467.71 384.4 466.37 386.27 C465.71 386.27 465.05 386.27 464.37 386.27 C464.31 386.83 464.24 387.39 464.18 387.96 C463.03 391.23 460.83 392.86 458.37 395.27 C456.82 397.02 455.28 398.77 453.74 400.52 C445.99 409.08 436.97 415.93 427.37 422.27 C426.4 422.91 425.44 423.55 424.45 424.2 C404.67 436.83 382.32 445.58 359.37 450.27 C358.71 450.43 358.05 450.58 357.37 450.74 C350.46 452.38 343.47 453.35 336.43 454.34 C335.22 454.51 334.01 454.68 332.76 454.86 C322.71 456.28 312.81 457.42 302.66 457.51 C301.76 457.52 300.86 457.53 299.92 457.54 C296.99 457.57 294.05 457.58 291.12 457.59 C289.61 457.59 289.61 457.59 288.06 457.6 C268.65 457.62 249.61 456.09 230.38 453.54 C228.33 453.27 226.29 453.01 224.24 452.75 C218.07 451.97 211.97 451.14 205.93 449.65 C204.86 449.39 203.79 449.13 202.68 448.86 C201.92 448.67 201.15 448.47 200.37 448.27 C200.2 449.37 200.04 450.46 199.87 451.59 C196.56 464.7 184.22 473.49 173.37 480.27 C172.23 481.01 172.23 481.01 171.07 481.76 C144.72 496.5 107.04 498.04 78.37 491.27 C77.08 491.03 75.78 490.79 74.45 490.54 C63.87 488.43 55.09 483.85 45.74 478.59 C41.96 476.49 38.13 474.48 34.3 472.46 C33.59 472.08 32.88 471.71 32.15 471.32 C27.8 469.02 23.43 466.76 19.02 464.58 C16.87 463.52 14.73 462.45 12.59 461.37 C11.91 461.03 11.22 460.68 10.52 460.32 C9.18 459.65 7.85 458.98 6.51 458.3 C0.87 455.47 -4.87 452.85 -10.63 450.27 C-11.66 449.81 -12.69 449.35 -13.75 448.88 C-54.37 430.84 -92.07 420.44 -136.63 425.27 C-137.31 425.35 -138 425.42 -138.7 425.5 C-152.29 426.97 -165.89 428.47 -179.43 430.33 C-185.87 431.2 -192.29 431.84 -198.76 432.34 C-200.34 432.46 -200.34 432.46 -201.95 432.59 C-210.02 433.2 -218.09 433.64 -226.17 433.93 C-226.98 433.96 -227.79 433.99 -228.62 434.03 C-229.33 434.05 -230.03 434.08 -230.76 434.1 C-232.86 434.22 -232.86 434.22 -235.63 435.27 C-237.24 435.32 -238.84 435.31 -240.45 435.27 C-246.5 435.21 -252.52 435.47 -258.57 435.77 C-260.49 435.86 -262.41 435.94 -264.32 436.02 C-267.44 436.16 -270.55 436.34 -273.66 436.59 C-279.25 436.9 -282.75 436.83 -287.2 433.21 C-293.36 426.79 -296.09 420.11 -295.97 411.25 C-293.34 388.26 -273.05 368.45 -255.95 354.46 C-251.93 351.27 -251.93 351.27 -249.63 351.27 C-249.63 350.61 -249.63 349.95 -249.63 349.27 C-247.44 347.64 -245.24 346.13 -242.95 344.65 C-242.26 344.2 -241.57 343.75 -240.86 343.29 C-238.79 341.94 -236.71 340.61 -234.63 339.27 C-233.62 338.61 -232.6 337.94 -231.55 337.26 C-216.47 327.65 -200.4 319.48 -183.63 313.27 C-181.99 312.59 -180.34 311.9 -178.7 311.21 C-174.36 309.48 -169.96 308.04 -165.51 306.65 C-164.85 306.44 -164.19 306.24 -163.52 306.02 C-158.92 304.61 -154.3 303.41 -149.63 302.27 C-149.89 301.66 -150.15 301.05 -150.42 300.42 C-152.82 294.63 -154.68 288.94 -156.07 282.84 C-156.28 281.95 -156.48 281.07 -156.69 280.16 C-160.27 264.41 -163.39 248.45 -165.18 232.39 C-165.58 229.16 -165.58 229.16 -166.64 225.66 C-167.8 221.08 -167.92 216.72 -167.9 212.01 C-167.9 211.13 -167.9 210.26 -167.9 209.36 C-167.91 207.52 -167.9 205.67 -167.89 203.82 C-167.88 201.07 -167.89 198.32 -167.91 195.57 C-167.92 183.36 -167.1 171.39 -165.63 159.27 C-165.53 158.44 -165.43 157.6 -165.33 156.73 C-162.42 132.71 -155.74 109.82 -144.63 88.34 C-144.03 87.16 -144.03 87.16 -143.41 85.97 C-140.95 81.34 -138.19 77.18 -134.97 73.04 C-133.52 71.19 -133.52 71.19 -132.1 68.68 C-130.11 65.42 -127.69 62.65 -125.2 59.77 C-124.24 58.66 -123.28 57.54 -122.32 56.43 C-121.86 55.89 -121.4 55.36 -120.93 54.81 C-119.78 53.45 -118.69 52.04 -117.61 50.62 C-114.76 47.24 -111.32 44.86 -107.78 42.24 C-105.54 40.19 -104.97 39.23 -104.63 36.27 C-104.06 36.15 -103.48 36.03 -102.88 35.9 C-98.53 34.69 -95.3 32.35 -91.66 29.69 C-81.63 22.44 -70.96 17.18 -59.63 12.27 C-57.92 11.52 -57.92 11.52 -56.17 10.75 C-43.9 5.89 -30.54 3.77 -17.63 1.27 C-16.75 1.09 -15.88 0.9 -14.97 0.71 C-9.99 0.06 -5.02 0.05 0 0 Z M-68.63 42.27 C-69.4 42.7 -70.16 43.13 -70.95 43.57 C-86.7 52.57 -100.67 64.87 -111.63 79.27 C-112.2 79.99 -112.77 80.71 -113.36 81.45 C-122.91 94.17 -129.77 109.21 -134.63 124.27 C-135.34 126.02 -136.05 127.77 -136.76 129.52 C-139.15 135.99 -140.01 142.74 -141.02 149.53 C-141.63 153.27 -141.63 153.27 -142.63 155.27 C-146.5 181.99 -147.15 212.1 -140.36 238.39 C-139.37 242.3 -138.72 246.25 -138.06 250.23 C-137.83 252.26 -137.83 252.26 -136.63 253.27 C-136.29 254.82 -136 256.38 -135.73 257.94 C-135.56 258.9 -135.39 259.85 -135.22 260.84 C-135.05 261.85 -134.87 262.86 -134.7 263.9 C-133.62 270.15 -132.42 276.18 -130.63 282.27 C-130.09 285.34 -129.64 288.42 -129.2 291.5 C-128.66 294.12 -127.87 295.94 -126.63 298.27 C-125 298.27 -125 298.27 -123.33 298.26 C-111.09 298.2 -98.86 298.21 -86.63 298.27 C-85.46 298.28 -84.3 298.29 -83.09 298.29 C-37.31 298.75 7.39 310.4 50.37 325.27 C51.09 325.52 51.81 325.76 52.55 326.02 C90.53 339.04 126.55 360.02 158.37 384.27 C159.46 385.1 160.56 385.92 161.66 386.75 C171.31 394.04 180.18 401.88 188.55 410.62 C190.2 412.5 190.2 412.5 192.37 412.27 C192.59 412.81 192.82 413.35 193.05 413.9 C196.38 419.96 196.38 419.96 202.18 423.36 C211.29 425.95 220.22 427.4 229.62 428.46 C231.71 428.71 233.81 428.95 235.91 429.21 C237.78 429.43 239.65 429.64 241.52 429.86 C244.37 430.27 244.37 430.27 246.37 431.27 C251.08 431.79 255.82 432.04 260.55 432.34 C261.26 432.38 261.96 432.42 262.68 432.47 C280.49 433.57 298 433.55 315.8 432.4 C317.03 432.32 318.26 432.24 319.52 432.16 C325.73 431.71 331.37 430.91 337.37 429.27 C340.32 428.77 343.28 428.37 346.24 427.96 C363.78 425.35 380.37 419.87 396.37 412.27 C397.82 411.61 397.82 411.61 399.3 410.94 C405.95 407.81 411.64 404.08 417.42 399.56 C420.24 397.37 423.13 395.32 426.05 393.27 C434.89 386.84 441.43 379.39 447.37 370.27 C448.26 368.98 448.26 368.98 449.18 367.65 C460.99 350.12 463.29 328.7 460.99 307.88 C457.26 290.81 446.89 275.18 433.37 264.27 C432.05 263.07 430.74 261.86 429.43 260.65 C425.39 257.13 421.14 254.67 416.37 252.27 C414.92 251.53 414.92 251.53 413.45 250.77 C408.03 248.03 402.59 245.42 397.01 243.04 C395.37 242.27 395.37 242.27 394.37 241.27 C392.06 240.74 389.75 240.24 387.43 239.77 C380.58 238.38 380.58 238.38 378.37 237.27 C376.66 237.15 374.95 237.1 373.24 237.09 C372.33 237.07 371.42 237.06 370.48 237.04 C367.35 237.27 364.51 237.94 361.48 238.75 C357.23 239.81 352.88 240.39 348.55 241.04 C344.01 241.79 340.42 242.98 336.37 245.27 C336.96 249.83 338.19 253.56 339.99 257.77 C343.78 266.86 346.69 276.23 349.56 285.65 C350.11 287.43 350.68 289.22 351.28 290.99 C351.56 291.86 351.84 292.73 352.14 293.63 C352.4 294.4 352.66 295.18 352.93 295.97 C353.45 298.71 353.02 300.58 352.37 303.27 C352.24 304.6 352.15 305.94 352.09 307.27 C352.05 307.99 352.01 308.72 351.97 309.46 C351.94 310.2 351.9 310.95 351.87 311.71 C351.63 316.64 351.29 321.41 350.37 326.27 C346.62 322.9 344.21 319.1 341.62 314.84 C340.73 313.39 339.85 311.95 338.97 310.5 C338.53 309.78 338.1 309.07 337.65 308.33 C336.49 306.48 335.3 304.66 334.08 302.86 C329.56 296.04 327.07 289.71 325.22 281.82 C324.01 276.8 322.21 272.09 320.37 267.27 C319.88 265.94 319.4 264.62 318.92 263.29 C318.4 261.86 317.89 260.44 317.37 259.02 C317.13 258.36 316.89 257.7 316.65 257.02 C314.97 252.47 312.87 248.43 310.37 244.27 C309.71 244.27 309.05 244.27 308.37 244.27 C308.28 243.29 308.19 242.3 308.09 241.28 C307.45 236.83 305.72 233.15 303.74 229.15 C303.2 228.03 303.2 228.03 302.65 226.89 C299.42 220.25 295.96 213.73 292.37 207.27 C291.65 205.95 290.93 204.63 290.21 203.3 C286.29 196.13 282.2 189.37 277.26 182.84 C275.36 180.26 273.67 177.62 271.99 174.9 C268.92 169.98 265.51 165.41 261.92 160.86 C259.22 157.44 256.75 153.93 254.37 150.27 C252.85 147.97 252.85 147.97 251.37 146.27 C250.71 146.27 250.05 146.27 249.37 146.27 C249.37 145.61 249.37 144.95 249.37 144.27 C248.71 144.27 248.05 144.27 247.37 144.27 C247.14 143.56 246.92 142.84 246.69 142.11 C245.06 138.61 242.97 136.62 240.18 133.96 C236.97 130.85 233.82 127.75 230.93 124.34 C224.37 116.67 217.04 109.52 209.36 102.98 C206.98 100.94 204.68 98.83 202.37 96.71 C198.2 92.96 193.93 89.53 189.37 86.27 C187.81 85.15 187.81 85.15 186.21 84 C182.61 81.41 178.99 78.84 175.37 76.27 C174.79 75.86 174.21 75.45 173.61 75.02 C171.93 73.83 170.24 72.64 168.55 71.46 C167.09 70.43 167.09 70.43 165.6 69.38 C156.43 63.4 146.48 58.58 136.77 53.53 C135.25 52.73 133.72 51.93 132.19 51.13 C122.49 46.05 112.69 41.93 102.37 38.27 C100.47 37.57 98.58 36.86 96.68 36.15 C86.83 32.61 77.06 29.85 66.78 27.98 C63.37 27.27 63.37 27.27 60.35 26.25 C21.78 13.57 -34.4 21.72 -68.63 42.27 Z " fill="#2F8F18" transform="translate(566.6328125,206.7265625)"/>
<path d="M0 0 C0.88 -0.01 1.76 -0.02 2.66 -0.03 C3.62 -0.03 4.58 -0.04 5.57 -0.04 C7.07 -0.05 7.07 -0.05 8.6 -0.06 C67.84 -0.39 121.54 9.58 176.4 31.8 C178.39 32.6 180.38 33.39 182.38 34.15 C215.84 46.88 247.8 68.2 275.19 91.01 C277.01 92.52 278.84 94 280.69 95.47 C295.21 107.04 295.21 107.04 296.13 113.63 C296.5 120.79 295.53 125.25 291.03 130.91 C284.54 137.41 276.38 141.23 267.78 144.16 C266.99 144.44 266.2 144.71 265.39 145 C253.95 148.73 242.31 149.49 230.36 149.42 C228.22 149.41 226.08 149.42 223.93 149.43 C203.81 149.46 187.87 144.13 170.41 134.59 C141.79 119.03 112.48 104.77 81.91 93.47 C81.14 93.19 80.36 92.9 79.57 92.61 C63.49 86.72 47.83 81.91 30.7 80.52 C26.78 80.16 26.78 80.16 24.86 79.65 C-0.39 73.66 -33.82 81.26 -59.1 85.15 C-73.99 87.4 -89.11 88.25 -104.15 88.82 C-108.32 88.89 -108.32 88.89 -112.22 90.16 C-125.4 91.94 -138.95 91.26 -152.22 91.16 C-153.22 89.16 -153.22 89.16 -152.61 87.27 C-147.37 76.43 -139.72 66.57 -130.22 59.16 C-129.43 58.36 -128.65 57.55 -127.84 56.72 C-121.34 50.38 -113.72 45.24 -106.22 40.16 C-105.02 39.35 -105.02 39.35 -103.81 38.52 C-84.27 25.62 -62.28 15.85 -40.22 8.16 C-39.57 7.93 -38.93 7.7 -38.27 7.46 C-28.82 4.07 -19.79 2.36 -9.79 1.52 C-6.23 1.16 -3.6 0.03 0 0 Z " fill="#72E050" transform="translate(448.21728515625,526.8388671875)"/>
<path d="M0 0 C4.43 3.22 6.89 6.93 8.69 12.06 C9.92 21.81 7.41 31.22 5.19 40.62 C4.83 42.19 4.47 43.76 4.11 45.32 C3.18 49.41 2.23 53.49 1.27 57.57 C-0.26 64.11 -1.77 70.65 -3.28 77.19 C-3.8 79.46 -4.34 81.73 -4.87 84 C-5.2 85.4 -5.52 86.79 -5.84 88.18 C-6.13 89.39 -6.41 90.61 -6.71 91.85 C-7.24 94.69 -7.44 97.18 -7.31 100.06 C0.33 102.47 8.21 103.71 16.08 105.12 C26.82 107.11 34.12 108.88 40.69 118.06 C43.27 122.44 43.22 127.1 42.69 132.06 C40.92 138.2 37.74 141.44 32.69 145.06 C22.76 150.03 5.86 144.38 -4.38 142.38 C-7.63 141.75 -10.89 141.14 -14.14 140.53 C-16.24 140.13 -18.33 139.73 -20.43 139.32 C-21.39 139.14 -22.34 138.96 -23.33 138.77 C-41.95 135.11 -41.95 135.11 -48.31 128.06 C-54.18 117.8 -51.69 107.86 -49.16 96.91 C-48.94 95.96 -48.73 95 -48.51 94.02 C-47.8 90.91 -47.09 87.8 -46.38 84.69 C-45.63 81.41 -44.88 78.13 -44.13 74.85 C-43.62 72.61 -43.11 70.37 -42.59 68.12 C-41.1 61.6 -39.65 55.06 -38.24 48.51 C-37.37 44.52 -36.5 40.53 -35.62 36.53 C-35.21 34.66 -34.81 32.78 -34.41 30.9 C-29.32 6.83 -29.32 6.83 -21.91 1.26 C-14.94 -2.84 -7.26 -3.91 0 0 Z " fill="#2F8F18" transform="translate(555.3125,349.9375)"/>
<path d="M0 0 C2 1 2 1 2 1 Z " fill="#2F8F18" transform="translate(332,543)"/>
</svg>
